<?xml version="1.0" encoding="UTF-8" standalone="no"?>
<!DOCTYPE svg PUBLIC "-//W3C//DTD SVG 1.1//EN" "http://www.w3.org/Graphics/SVG/1.1/DTD/svg11.dtd">
<svg width="100%" height="100%" viewBox="0 0 51 50" version="1.1" xmlns="http://www.w3.org/2000/svg" xmlns:xlink="http://www.w3.org/1999/xlink" xml:space="preserve" xmlns:serif="http://www.serif.com/" style="fill-rule:evenodd;clip-rule:evenodd;stroke-linejoin:round;stroke-miterlimit:2;">
    <rect id="ShopeePay" x="0.393" y="0" width="50" height="50" style="fill:none;"/>
    <path d="M50.393,2.827C50.393,1.266 49.128,0 47.566,0L3.221,0C1.659,0 0.393,1.266 0.393,2.827L0.393,47.173C0.393,48.734 1.659,50 3.221,50L47.566,50C49.128,50 50.393,48.734 50.393,47.173L50.393,2.827Z" style="fill:#fff;"/>
    <path d="M15.216,7.374L36.183,7.374C37.577,7.374 38.716,8.514 38.716,9.908L38.716,24.578C38.716,25.971 37.577,27.111 36.183,27.111L14.603,27.111C13.21,27.111 12.07,25.971 12.07,24.578L12.07,6.453C12.07,5.791 12.612,5.334 13.267,5.257L32.602,2.787C33.263,2.787 33.798,3.329 33.798,3.983L33.798,6.038L14.005,6.038C14.005,6.896 14.266,7.367 15.216,7.367L15.216,7.374ZM26.973,23.452C25.207,23.79 22.941,23.206 21.71,21.876C21.154,21.278 22.048,20.377 22.611,20.975C23.441,21.869 24.918,22.284 26.122,22.256C27.656,22.221 29.028,20.821 28.155,19.259C26.945,17.099 23.969,17.704 22.435,16.001C21.196,14.629 21.78,12.469 23.237,11.512C24.757,10.513 27.374,10.555 28.62,11.983C29.154,12.595 28.261,13.496 27.719,12.884C26.713,11.73 24.334,11.885 23.427,13.074C22.132,14.77 24.067,15.684 25.418,16.092C27.276,16.655 29.337,17.683 29.675,19.814C29.942,21.531 28.62,23.121 26.973,23.445L26.973,23.452Z" style="fill:#ee4e2c;"/>
    <path d="M26.973,23.452C25.207,23.79 22.941,23.206 21.71,21.876C21.154,21.278 22.048,20.377 22.611,20.975C23.441,21.869 24.918,22.284 26.122,22.256C27.656,22.221 29.028,20.821 28.155,19.259C26.945,17.099 23.969,17.704 22.435,16.001C21.196,14.629 21.78,12.469 23.237,11.512C24.757,10.513 27.374,10.555 28.62,11.983C29.154,12.595 28.261,13.503 27.719,12.884C26.713,11.73 24.334,11.885 23.427,13.074C22.132,14.77 24.067,15.684 25.418,16.092C27.276,16.655 29.337,17.683 29.675,19.814C29.942,21.531 28.62,23.121 26.973,23.445L26.973,23.452Z" style="fill:#fefefe;"/>
    <path d="M27.546,30.633C27.044,30.633 26.599,30.843 26.29,31.181L26.29,30.792C26.29,30.441 25.724,30.441 25.724,30.792L25.724,35.401C25.724,35.752 26.29,35.757 26.29,35.401L26.29,33.349C26.599,33.686 27.049,33.897 27.546,33.897C28.473,33.897 29.227,33.167 29.227,32.267C29.227,31.368 28.473,30.637 27.546,30.637L27.546,30.633ZM27.546,33.302C26.951,33.302 26.473,32.834 26.473,32.263C26.473,31.747 26.862,31.317 27.372,31.232L27.382,31.232C27.433,31.223 27.489,31.218 27.546,31.218C27.981,31.218 28.361,31.476 28.529,31.841L28.529,31.846C28.585,31.972 28.618,32.113 28.618,32.263C28.618,32.839 28.136,33.302 27.546,33.302ZM23.372,33.893C22.445,33.893 21.691,33.162 21.691,32.263C21.691,31.363 22.445,30.633 23.372,30.633C24.3,30.633 25.054,31.363 25.054,32.263C25.054,33.162 24.3,33.893 23.372,33.893ZM23.372,31.223C22.782,31.223 22.3,31.691 22.3,32.263C22.3,32.839 22.782,33.302 23.372,33.302C23.962,33.302 24.445,32.834 24.445,32.263C24.445,31.687 23.962,31.223 23.372,31.223ZM36.88,32.23C36.866,31.48 36.473,30.801 35.653,30.651C34.946,30.52 34.122,30.881 33.822,31.523C33.508,32.188 33.639,33.101 34.257,33.565C34.922,34.066 35.962,33.911 36.646,33.541C36.965,33.368 36.679,32.895 36.36,33.068C35.929,33.302 35.363,33.42 34.876,33.26C34.51,33.143 34.309,32.839 34.248,32.497L36.599,32.497C36.749,32.497 36.885,32.37 36.88,32.22L36.88,32.23ZM34.267,31.954C34.271,31.935 34.276,31.911 34.281,31.893C34.417,31.448 34.88,31.185 35.349,31.176C35.887,31.162 36.187,31.523 36.281,31.954L34.262,31.954L34.267,31.954ZM33.115,32.235C33.1,31.485 32.707,30.806 31.887,30.656C31.18,30.525 30.356,30.886 30.056,31.527C29.742,32.192 29.873,33.106 30.492,33.569C31.157,34.071 32.196,33.916 32.88,33.546C33.199,33.373 32.913,32.9 32.595,33.073C32.164,33.307 31.597,33.424 31.11,33.265C30.745,33.148 30.543,32.843 30.482,32.502L32.833,32.502C32.983,32.502 33.119,32.375 33.115,32.225L33.115,32.235ZM30.501,31.958C30.506,31.939 30.51,31.916 30.515,31.897C30.651,31.452 31.115,31.19 31.583,31.181C32.122,31.167 32.421,31.527 32.515,31.958L30.496,31.958L30.501,31.958ZM21.03,31.705L21.03,33.612C21.03,33.972 20.464,33.972 20.464,33.612L20.464,31.743C20.445,31.373 20.131,31.204 20.117,31.199C19.714,31.026 18.984,31.106 18.548,31.658L18.548,33.612C18.548,33.972 17.981,33.972 17.981,33.612L17.981,28.717C17.981,28.356 18.548,28.361 18.548,28.717L18.548,30.914C19.241,30.45 20.122,30.502 20.539,30.787C20.539,30.787 21.035,31.059 21.03,31.705ZM17.059,28.942C16.506,28.333 15.34,28.314 14.665,28.74C14.019,29.148 13.757,30.071 14.309,30.656C14.993,31.382 16.314,31.124 16.853,32.047C17.241,32.717 16.632,33.312 15.949,33.326C15.415,33.335 14.754,33.157 14.384,32.778C14.136,32.52 13.738,32.904 13.986,33.162C14.534,33.729 15.541,33.982 16.323,33.836C17.054,33.701 17.644,33.017 17.522,32.286C17.372,31.377 16.454,30.937 15.63,30.698C15.031,30.525 14.169,30.132 14.745,29.41C15.148,28.9 16.206,28.834 16.656,29.331C16.895,29.593 17.293,29.209 17.054,28.947L17.059,28.942Z" style="fill:#ee4e2c;fill-rule:nonzero;"/>
    <path d="M31.803,47.213L30.009,47.213L31.93,43.583L28.773,37.621L30.721,37.621L32.904,41.743L35.086,37.621L36.88,37.621L31.803,47.213ZM13.907,44.37L15.415,44.37L15.415,41.621L17.443,41.621C19.546,41.621 21.255,40.145 21.255,38.323C21.255,36.501 19.55,35.026 17.443,35.026L13.907,35.026L13.907,44.375L13.907,44.37ZM15.415,40.117L15.415,36.53L17.443,36.53C18.586,36.53 19.513,37.33 19.513,38.323C19.513,39.312 18.586,40.117 17.443,40.117L15.415,40.117ZM26.895,37.677L28.215,37.677L28.215,44.314L26.895,44.314L26.895,43.569C26.304,44.07 25.541,44.375 24.707,44.375C22.843,44.375 21.33,42.862 21.33,40.998C21.33,39.134 22.843,37.621 24.707,37.621C25.541,37.621 26.304,37.925 26.895,38.426L26.895,37.677ZM24.707,39.04C25.784,39.04 26.66,39.916 26.66,40.993C26.66,42.07 25.784,42.946 24.707,42.946C23.63,42.946 22.754,42.07 22.754,40.993C22.754,39.916 23.63,39.04 24.707,39.04Z" style="fill:#ee4e2c;"/>
</svg>